<mxfile host="app.diagrams.net" modified="2024-06-21T09:59:25.158Z" agent="Mozilla/5.0 (Windows NT 10.0; Win64; x64) AppleWebKit/537.36 (KHTML, like Gecko) Chrome/126.0.0.0 Safari/537.36" version="24.6.0" etag="zuVK4FcO_gk-cf5P4ULt" type="github">
  <diagram name="Страница — 1" id="wAo10VZih9NeWetnVAsV">
    <mxGraphModel>
      <root>
        <mxCell id="0" />
        <mxCell id="1" parent="0" />
      </root>
    </mxGraphModel>
  </diagram>
</mxfile>
